<svg xmlns="http://www.w3.org/2000/svg" viewBox="0 0 512 512" role="img" aria-label="본초 감별">
  <rect width="512" height="512" rx="112" fill="#0b0b0c"/>
  <path d="M128 340c64-12 106-42 126-91 19 54 59 84 130 91-37 36-81 54-130 54s-91-18-126-54Z" fill="#f2d375"/>
  <path d="M252 116c-58 30-87 73-87 129 0 39 18 71 54 96 21-67 32-142 33-225Z" fill="#6fcf97"/>
  <path d="M267 116c55 30 83 73 83 129 0 39-17 71-52 96-21-67-31-142-31-225Z" fill="#4ea5ff"/>
  <path d="M256 139v246" stroke="#0b0b0c" stroke-width="18" stroke-linecap="round"/>
  <circle cx="256" cy="376" r="22" fill="#0b0b0c"/>
</svg>
